#Comment line ignore any data following # character 
#Hierarchical Translation and Rotation (.htr) file 
[Header]	
#Header keywords are followed by a single value 
FileType HTR		#Single word string
DataType HTRS		#Translation followed by rotation and scale data
FileVersion 1		#integer
NumSegments 84		#integer
NumFrames 2		#integer
DataFrameRate 30		#integer, data frame rate in this file
EulerRotationOrder ZYX
CalibrationUnits mm
RotationUnits Degrees
GlobalAxisofGravity Y
BoneLengthAxis Y
ScaleFactor 1.00
[SegmentNames&Hierarchy]
#CHILD	PARENT
MASTER GLOBAL
root MASTER
chest root
L_mid_tent01 root
R_mid_tent01 root
spine01 root
Bip01_Neck chest
L_humerus chest
R_humerus chest
weapon_bone chest
Bip01_Head Bip01_Neck
eye_left_bone Bip01_Head
eye_right_bone Bip01_Head
L_forearm L_humerus
L_front_hand L_forearm
L_weapon_bone L_forearm
L_front_hand01_01 L_front_hand
L_front_hand02_01 L_front_hand
L_front_hand03_01 L_front_hand
L_front_hand01_02 L_front_hand01_01
L_front_hand02_02 L_front_hand02_01
L_front_hand03_02 L_front_hand03_01
R_forearm R_humerus
R_front_hand R_forearm
R_weapon_bone R_forearm
R_front_hand01_01 R_front_hand
R_front_hand02_01 R_front_hand
R_front_hand03_01 R_front_hand
R_front_hand01_02 R_front_hand01_01
R_front_hand02_02 R_front_hand02_01
R_front_hand03_02 R_front_hand03_01
null_rope01_connect L_mid_tent01
Rope1_Seg01 null_rope01_connect
Rope1_Seg02 Rope1_Seg01
Rope1_Seg03 Rope1_Seg02
Rope1_Seg04 Rope1_Seg03
Rope1_Seg05 Rope1_Seg04
Rope1_Seg06 Rope1_Seg05
Rope1_Seg07 Rope1_Seg06
Rope1_Seg09 Rope1_Seg07
L_mid_hand01 Rope1_Seg09
L_mid_hand02 Rope1_Seg09
L_mid_hand03 Rope1_Seg09
null_rope02_connect R_mid_tent01
Rope2_Seg01 null_rope02_connect
Rope2_Seg02 Rope2_Seg01
Rope2_Seg03 Rope2_Seg02
Rope2_Seg04 Rope2_Seg03
Rope2_Seg05 Rope2_Seg04
Rope2_Seg06 Rope2_Seg05
Rope2_Seg07 Rope2_Seg06
Rope2_Seg09 Rope2_Seg07
R_mid_hand01 Rope2_Seg09
R_mid_hand02 Rope2_Seg09
R_mid_hand03 Rope2_Seg09
spine02 spine01
spine03 spine02
pelvis spine03
null_rope03_connect pelvis
null_rope04_connect pelvis
Rope3_Seg01 null_rope03_connect
Rope3_Seg02 Rope3_Seg01
Rope3_Seg03 Rope3_Seg02
Rope3_Seg04 Rope3_Seg03
Rope3_Seg05 Rope3_Seg04
Rope3_Seg06 Rope3_Seg05
Rope3_Seg07 Rope3_Seg06
Rope3_Seg08 Rope3_Seg07
Rope3_Seg09 Rope3_Seg08
R_rear_hand01 Rope3_Seg09
R_rear_hand02 Rope3_Seg09
R_rear_hand03 Rope3_Seg09
Rope4_Seg01 null_rope04_connect
Rope4_Seg02 Rope4_Seg01
Rope4_Seg03 Rope4_Seg02
Rope4_Seg04 Rope4_Seg03
Rope4_Seg05 Rope4_Seg04
Rope4_Seg06 Rope4_Seg05
Rope4_Seg07 Rope4_Seg06
Rope4_Seg08 Rope4_Seg07
Rope4_Seg09 Rope4_Seg08
L_rear_hand01 Rope4_Seg09
L_rear_hand02 Rope4_Seg09
L_rear_hand03 Rope4_Seg09
[BasePosition]
#SegmentName Tx, Ty, Tz, Rx, Ry, Rz, BoneLength
MASTER 0.000000 0.000000 0.000000 -90.000000 0.000000 0.000000 10.000000 
root 0.000000 0.000000 0.000000 0.000000 0.000000 0.000000 10.000000 
chest 0.000000 0.000000 0.000000 0.000000 0.000000 0.000000 10.000000 
L_mid_tent01 0.000000 0.000000 0.000000 0.000000 0.000000 0.000000 10.000000 
R_mid_tent01 0.000000 0.000000 0.000000 0.000000 0.000000 0.000000 10.000000 
spine01 0.000000 0.000000 0.000000 0.000000 0.000000 0.000000 10.000000 
Bip01_Neck 0.000000 0.000000 0.000000 0.000000 0.000000 0.000000 10.000000 
L_humerus 0.000000 0.000000 0.000000 0.000000 0.000000 0.000000 10.000000 
R_humerus 0.000000 0.000000 0.000000 0.000000 0.000000 0.000000 10.000000 
weapon_bone 0.000000 0.000000 0.000000 0.000000 0.000000 0.000000 10.000000 
Bip01_Head 0.000000 0.000000 0.000000 0.000000 0.000000 0.000000 10.000000 
eye_left_bone 0.000000 0.000000 0.000000 0.000000 0.000000 0.000000 10.000000 
eye_right_bone 0.000000 0.000000 0.000000 0.000000 0.000000 0.000000 10.000000 
L_forearm 0.000000 0.000000 0.000000 0.000000 0.000000 0.000000 10.000000 
L_front_hand 0.000000 0.000000 0.000000 0.000000 0.000000 0.000000 10.000000 
L_weapon_bone 0.000000 0.000000 0.000000 0.000000 0.000000 0.000000 10.000000 
L_front_hand01_01 0.000000 0.000000 0.000000 0.000000 0.000000 0.000000 10.000000 
L_front_hand02_01 0.000000 0.000000 0.000000 0.000000 0.000000 0.000000 10.000000 
L_front_hand03_01 0.000000 0.000000 0.000000 0.000000 0.000000 0.000000 10.000000 
L_front_hand01_02 0.000000 0.000000 0.000000 0.000000 0.000000 0.000000 10.000000 
L_front_hand02_02 0.000000 0.000000 0.000000 0.000000 0.000000 0.000000 10.000000 
L_front_hand03_02 0.000000 0.000000 0.000000 0.000000 0.000000 0.000000 10.000000 
R_forearm 0.000000 0.000000 0.000000 0.000000 0.000000 0.000000 10.000000 
R_front_hand 0.000000 0.000000 0.000000 0.000000 0.000000 0.000000 10.000000 
R_weapon_bone 0.000000 0.000000 0.000000 0.000000 0.000000 0.000000 10.000000 
R_front_hand01_01 0.000000 0.000000 0.000000 0.000000 0.000000 0.000000 10.000000 
R_front_hand02_01 0.000000 0.000000 0.000000 0.000000 0.000000 0.000000 10.000000 
R_front_hand03_01 0.000000 0.000000 0.000000 0.000000 0.000000 0.000000 10.000000 
R_front_hand01_02 0.000000 0.000000 0.000000 0.000000 0.000000 0.000000 10.000000 
R_front_hand02_02 0.000000 0.000000 0.000000 0.000000 0.000000 0.000000 10.000000 
R_front_hand03_02 0.000000 0.000000 0.000000 0.000000 0.000000 0.000000 10.000000 
null_rope01_connect 0.000000 0.000000 0.000000 0.000000 0.000000 0.000000 10.000000 
Rope1_Seg01 0.000000 0.000000 0.000000 0.000000 0.000000 0.000000 10.000000 
Rope1_Seg02 0.000000 0.000000 0.000000 0.000000 0.000000 0.000000 10.000000 
Rope1_Seg03 0.000000 0.000000 0.000000 0.000000 0.000000 0.000000 10.000000 
Rope1_Seg04 0.000000 0.000000 0.000000 0.000000 0.000000 0.000000 10.000000 
Rope1_Seg05 0.000000 0.000000 0.000000 0.000000 0.000000 0.000000 10.000000 
Rope1_Seg06 0.000000 0.000000 0.000000 0.000000 0.000000 0.000000 10.000000 
Rope1_Seg07 0.000000 0.000000 0.000000 0.000000 0.000000 0.000000 10.000000 
Rope1_Seg09 0.000000 0.000000 0.000000 0.000000 0.000000 0.000000 10.000000 
L_mid_hand01 0.000000 0.000000 0.000000 0.000000 0.000000 0.000000 10.000000 
L_mid_hand02 0.000000 0.000000 0.000000 0.000000 0.000000 0.000000 10.000000 
L_mid_hand03 0.000000 0.000000 0.000000 0.000000 0.000000 0.000000 10.000000 
null_rope02_connect 0.000000 0.000000 0.000000 0.000000 0.000000 0.000000 10.000000 
Rope2_Seg01 0.000000 0.000000 0.000000 0.000000 0.000000 0.000000 10.000000 
Rope2_Seg02 0.000000 0.000000 0.000000 0.000000 0.000000 0.000000 10.000000 
Rope2_Seg03 0.000000 0.000000 0.000000 0.000000 0.000000 0.000000 10.000000 
Rope2_Seg04 0.000000 0.000000 0.000000 0.000000 0.000000 0.000000 10.000000 
Rope2_Seg05 0.000000 0.000000 0.000000 0.000000 0.000000 0.000000 10.000000 
Rope2_Seg06 0.000000 0.000000 0.000000 0.000000 0.000000 0.000000 10.000000 
Rope2_Seg07 0.000000 0.000000 0.000000 0.000000 0.000000 0.000000 10.000000 
Rope2_Seg09 0.000000 0.000000 0.000000 0.000000 0.000000 0.000000 10.000000 
R_mid_hand01 0.000000 0.000000 0.000000 0.000000 0.000000 0.000000 10.000000 
R_mid_hand02 0.000000 0.000000 0.000000 0.000000 0.000000 0.000000 10.000000 
R_mid_hand03 0.000000 0.000000 0.000000 0.000000 0.000000 0.000000 10.000000 
spine02 0.000000 0.000000 0.000000 0.000000 0.000000 0.000000 10.000000 
spine03 0.000000 0.000000 0.000000 0.000000 0.000000 0.000000 10.000000 
pelvis 0.000000 0.000000 0.000000 0.000000 0.000000 0.000000 10.000000 
null_rope03_connect 0.000000 0.000000 0.000000 0.000000 0.000000 0.000000 10.000000 
null_rope04_connect 0.000000 0.000000 0.000000 0.000000 0.000000 0.000000 10.000000 
Rope3_Seg01 0.000000 0.000000 0.000000 0.000000 0.000000 0.000000 10.000000 
Rope3_Seg02 0.000000 0.000000 0.000000 0.000000 0.000000 0.000000 10.000000 
Rope3_Seg03 0.000000 0.000000 0.000000 0.000000 0.000000 0.000000 10.000000 
Rope3_Seg04 0.000000 0.000000 0.000000 0.000000 0.000000 0.000000 10.000000 
Rope3_Seg05 0.000000 0.000000 0.000000 0.000000 0.000000 0.000000 10.000000 
Rope3_Seg06 0.000000 0.000000 0.000000 0.000000 0.000000 0.000000 10.000000 
Rope3_Seg07 0.000000 0.000000 0.000000 0.000000 0.000000 0.000000 10.000000 
Rope3_Seg08 0.000000 0.000000 0.000000 0.000000 0.000000 0.000000 10.000000 
Rope3_Seg09 0.000000 0.000000 0.000000 0.000000 0.000000 0.000000 10.000000 
R_rear_hand01 0.000000 0.000000 0.000000 0.000000 0.000000 0.000000 10.000000 
R_rear_hand02 0.000000 0.000000 0.000000 0.000000 0.000000 0.000000 10.000000 
R_rear_hand03 0.000000 0.000000 0.000000 0.000000 0.000000 0.000000 10.000000 
Rope4_Seg01 0.000000 0.000000 0.000000 0.000000 0.000000 0.000000 10.000000 
Rope4_Seg02 0.000000 0.000000 0.000000 0.000000 0.000000 0.000000 10.000000 
Rope4_Seg03 0.000000 0.000000 0.000000 0.000000 0.000000 0.000000 10.000000 
Rope4_Seg04 0.000000 0.000000 0.000000 0.000000 0.000000 0.000000 10.000000 
Rope4_Seg05 0.000000 0.000000 0.000000 0.000000 0.000000 0.000000 10.000000 
Rope4_Seg06 0.000000 0.000000 0.000000 0.000000 0.000000 0.000000 10.000000 
Rope4_Seg07 0.000000 0.000000 0.000000 0.000000 0.000000 0.000000 10.000000 
Rope4_Seg08 0.000000 0.000000 0.000000 0.000000 0.000000 0.000000 10.000000 
Rope4_Seg09 0.000000 0.000000 0.000000 0.000000 0.000000 0.000000 10.000000 
L_rear_hand01 0.000000 0.000000 0.000000 0.000000 0.000000 0.000000 10.000000 
L_rear_hand02 0.000000 0.000000 0.000000 0.000000 0.000000 0.000000 10.000000 
L_rear_hand03 0.000000 0.000000 0.000000 0.000000 0.000000 0.000000 10.000000 
#Beginning of Data. Separated by tabs
#Fr	Tx	Ty	Tz	Rx	Ry	Rz	SF
[MASTER]
7 -0.000151 1021.380066 1707.716553 0.001660 0.001660 0.001660 1989.852539
8 -0.000178 1199.498413 2131.551025 0.001660 0.001660 0.001660 2445.875488
[root]
7 -25.961302 -24.081114 1472.344238 -85.201485 -4.367274 -92.157043 1472.770020
8 -28.423368 -30.140924 1478.597412 -84.031578 -3.836397 -92.640228 1479.177612
[chest]
7 -84.512650 -34.090519 0.000000 -1.293794 -1.320176 -150.734100 91.129311
8 -84.512650 -34.090519 0.000000 -1.279979 -1.217941 -150.914597 91.129311
[L_mid_tent01]
7 27.299093 22.179220 -249.918701 4.641299 8.786102 82.425583 252.381699
8 27.299099 22.179241 -249.918701 4.007786 11.852603 81.702972 252.381699
[R_mid_tent01]
7 23.228794 24.509907 226.238495 164.226883 -4.936835 76.419678 228.744751
8 23.228794 24.509907 226.238495 162.105896 -18.794409 82.843895 228.744751
[spine01]
7 -0.361383 -0.195265 0.000000 0.001954 0.001301 22.687077 0.410763
8 -0.361383 -0.195265 0.000000 0.001954 0.001300 22.722383 0.410763
[Bip01_Neck]
7 165.484543 71.581718 0.000119 176.643677 -1.657967 43.431911 180.302734
8 165.484543 71.581718 0.000119 176.643677 -1.657967 43.431911 180.302734
[L_humerus]
7 -13.983130 -135.272980 -120.471481 -6.948452 64.207237 82.911842 181.680161
8 -13.983130 -135.272980 -120.471481 -7.004301 64.013420 82.844681 181.680161
[R_humerus]
7 -13.983309 -135.273102 125.287651 25.762817 -65.008659 69.957100 184.909012
8 -13.983309 -135.273102 125.287651 25.698759 -64.815109 70.025986 184.909012
[weapon_bone]
7 235.964890 -300.705902 0.000000 0.000000 -89.951546 -128.212341 382.234833
8 235.964890 -300.705902 0.000000 0.000000 -89.951546 -128.212341 382.234833
[Bip01_Head]
7 213.518066 185.511246 14.415416 4.982295 8.427112 -43.807419 283.217560
8 213.589478 185.312881 16.978973 4.976888 6.734808 -43.852257 283.283630
[eye_left_bone]
7 -24.626970 125.451866 -64.772606 0.000000 -90.000000 -99.840431 143.318359
8 -24.626970 125.451866 -64.772606 0.000000 -90.000000 -99.840431 143.318359
[eye_right_bone]
7 -24.626970 125.451866 64.327362 0.000000 -89.965736 80.156380 143.117676
8 -24.626970 125.451866 64.327362 0.000000 -89.965736 80.156380 143.117676
[L_forearm]
7 322.776093 0.000000 -0.000119 0.000428 -0.002308 -111.005806 322.776093
8 322.776093 0.000000 -0.000119 0.000429 -0.002308 -111.065796 322.776093
[L_front_hand]
7 241.149185 -0.042021 -3.300071 -178.667953 -1.835447 -27.422350 241.171753
8 241.149185 -0.042021 -3.300071 -178.667953 -1.835447 -27.422350 241.171753
[L_weapon_bone]
7 156.183838 0.000000 0.000000 0.000014 0.000007 0.000001 156.183838
8 156.183838 0.000000 0.000000 0.000014 0.000007 0.000001 156.183838
[L_front_hand01_01]
7 86.095154 20.947098 -0.655860 -0.335131 -0.500211 71.723785 88.609184
8 86.095154 20.947098 -0.655860 -0.320921 -0.506953 70.185371 88.609184
[L_front_hand02_01]
7 86.935165 -11.437475 24.513514 149.028946 -58.148323 -55.100948 91.046425
8 86.935165 -11.437475 24.513514 146.961243 -57.333778 -52.657810 91.046425
[L_front_hand03_01]
7 86.637497 -14.123976 -20.424902 -148.918808 56.366669 -56.764694 90.126129
8 86.637497 -14.123976 -20.424902 -146.985443 55.548409 -54.432819 90.126129
[L_front_hand01_02]
7 71.020905 -0.000179 0.000030 0.000317 -0.002326 -105.537254 71.020905
8 71.020905 -0.000179 0.000030 0.000317 -0.002326 -105.513657 71.020905
[L_front_hand02_02]
7 71.020927 -0.000119 0.000060 0.000317 -0.002326 -105.537254 71.020927
8 71.020927 -0.000119 0.000060 0.000317 -0.002326 -105.513657 71.020927
[L_front_hand03_02]
7 71.020905 -0.000060 0.000060 0.000317 -0.002326 -105.537254 71.020905
8 71.020905 -0.000060 0.000060 0.000317 -0.002326 -105.513657 71.020905
[R_forearm]
7 322.776428 -0.000060 0.000030 0.201174 0.067971 -109.661888 322.776428
8 322.776428 -0.000060 0.000030 0.201134 0.068088 -109.728432 322.776428
[R_front_hand]
7 238.847015 -0.006795 2.210259 -2.635298 -10.645461 -26.312506 238.857239
8 238.847015 -0.006795 2.210259 -2.635298 -10.645461 -26.312506 238.857239
[R_weapon_bone]
7 155.664093 0.002503 -0.000030 0.003487 0.001180 -90.988930 155.664078
8 155.664093 0.002503 -0.000030 0.003487 0.001180 -90.988930 155.664078
[R_front_hand01_01]
7 87.624611 14.231146 22.918642 -149.707169 -58.394512 56.007454 91.683487
8 87.624611 14.231146 22.918642 -147.670532 -57.619129 53.605923 91.683487
[R_front_hand02_01]
7 89.356956 14.367283 -19.491137 149.983459 56.758793 58.275940 92.579636
8 89.356956 14.367283 -19.491137 148.052353 55.989693 55.954597 92.579636
[R_front_hand03_01]
7 87.286232 -22.307278 -0.143439 0.134949 -0.432464 -72.452232 90.091743
8 87.286232 -22.307278 -0.143439 0.125269 -0.437058 -70.957245 90.091743
[R_front_hand01_02]
7 71.020905 0.000060 0.000119 0.002323 -0.000334 106.381714 71.020905
8 71.020905 0.000060 0.000119 0.002323 -0.000334 106.381714 71.020905
[R_front_hand02_02]
7 71.020844 -0.000030 -0.000119 0.002323 -0.000334 106.381714 71.020836
8 71.020844 -0.000030 -0.000119 0.002323 -0.000334 106.381714 71.020836
[R_front_hand03_02]
7 71.020905 0.000000 0.000030 0.002323 -0.000334 106.381714 71.020905
8 71.020905 0.000000 0.000030 0.002323 -0.000334 106.381714 71.020905
[null_rope01_connect]
7 328.732483 0.000000 -0.000238 -109.298668 -81.365913 121.298409 328.732483
8 328.732483 0.000000 -0.000238 -119.035599 -80.117302 131.176575 328.732483
[Rope1_Seg01]
7 0.000067 -0.000029 0.000114 -59.707321 61.799866 -63.504887 0.000136
8 0.000065 -0.000027 0.000108 -59.590820 64.870682 -61.253349 0.000129
[Rope1_Seg02]
7 139.999863 -0.000179 0.000000 -1.471366 0.508683 2.498078 139.999863
8 139.999863 -0.000179 0.000000 -1.960529 0.683971 3.720278 139.999863
[Rope1_Seg03]
7 139.999924 0.000060 -0.000060 -1.879408 0.618843 3.533713 139.999924
8 139.999924 0.000060 -0.000060 -2.426917 0.794252 5.383930 139.999924
[Rope1_Seg04]
7 139.999924 -0.000060 -0.000119 -3.030385 1.339130 6.347192 139.999924
8 139.999924 -0.000060 -0.000119 -4.268215 2.876906 11.319738 139.999924
[Rope1_Seg05]
7 139.999832 0.000119 -0.000060 -5.811666 4.600200 18.028936 139.999832
8 139.999832 0.000119 -0.000060 -3.630958 2.613678 19.489923 139.999832
[Rope1_Seg06]
7 139.999954 0.000119 -0.000060 4.579990 -9.413372 -8.034472 139.999954
8 139.999954 0.000119 -0.000060 5.081234 -15.738012 -14.044572 139.999954
[Rope1_Seg07]
7 139.999985 0.000060 0.000000 6.319955 -9.289623 -12.910505 139.999985
8 139.999985 0.000060 0.000000 3.260769 -11.707311 -10.621985 139.999985
[Rope1_Seg09]
7 121.602913 0.000119 -0.000089 -89.793175 -1.359789 0.847147 121.602913
8 121.602913 0.000119 -0.000089 -89.793175 -1.359789 0.847147 121.602913
[L_mid_hand01]
7 103.859421 1.038730 8.195221 110.549706 -45.072773 -15.392938 104.187431
8 103.859421 1.038730 8.195221 109.437721 -41.837845 -13.776228 104.187431
[L_mid_hand02]
7 105.572853 -4.139662 -10.864139 -149.303925 33.991974 -42.687023 106.211075
8 105.572853 -4.139662 -10.864139 -147.395187 32.186741 -39.191986 106.211075
[L_mid_hand03]
7 104.641464 17.579376 -3.913581 -13.209491 13.449579 48.630810 106.179977
8 104.641464 17.579376 -3.913581 -13.988547 12.638442 45.197113 106.179977
[null_rope02_connect]
7 328.732849 0.000179 -0.000119 -106.433090 74.637070 54.159954 328.732849
8 328.732849 0.000179 -0.000119 -135.751007 62.166286 28.718672 328.732849
[Rope2_Seg01]
7 0.000048 0.000114 0.000000 124.493965 77.041222 -117.619797 0.000124
8 0.000049 0.000108 0.000000 113.670914 73.946846 -127.521507 0.000119
[Rope2_Seg02]
7 139.999741 -0.000060 -0.000119 0.835916 1.447647 -2.891515 139.999756
8 139.999741 -0.000060 -0.000119 1.335910 0.465727 -4.143561 139.999756
[Rope2_Seg03]
7 140.000107 0.000030 0.000000 1.107868 1.607399 -3.331987 140.000107
8 140.000107 0.000030 0.000000 1.736863 0.415006 -4.731938 140.000107
[Rope2_Seg04]
7 139.999802 0.000000 -0.000060 2.914448 2.342105 -6.850792 139.999802
8 139.999802 0.000000 -0.000060 3.787978 0.822424 -8.892424 139.999802
[Rope2_Seg05]
7 139.999985 -0.000060 0.000119 5.315860 2.368893 -9.551377 139.999985
8 139.999985 -0.000060 0.000119 5.494361 0.350043 -10.443516 139.999985
[Rope2_Seg06]
7 139.999893 -0.000030 -0.000119 -4.852790 1.040341 6.832759 139.999893
8 139.999893 -0.000030 -0.000119 -3.253879 -0.476183 6.197890 139.999893
[Rope2_Seg07]
7 139.999893 0.000060 -0.000060 -13.228559 -1.504991 29.267796 139.999893
8 139.999893 0.000060 -0.000060 -10.570015 -2.205677 31.327171 139.999893
[Rope2_Seg09]
7 121.338966 0.000089 -0.000060 33.793236 -1.359788 -0.847141 121.338966
8 121.338966 0.000089 -0.000060 33.793236 -1.359788 -0.847141 121.338966
[R_mid_hand01]
7 104.680779 11.144459 -10.335981 -28.447895 39.731529 52.443096 105.778534
8 104.680779 11.144459 -10.335981 -30.935734 37.970642 48.479172 105.778534
[R_mid_hand02]
7 104.070427 2.443552 8.231699 63.907383 -55.672989 22.555904 104.424065
8 104.070427 2.443552 8.231699 65.980988 -52.455704 19.994473 104.424065
[R_mid_hand03]
7 106.028137 -11.221827 -5.996406 -173.262527 14.339042 -61.789948 106.788818
8 106.028137 -11.221827 -5.996406 -172.374313 13.894678 -58.153652 106.788818
[spine02]
7 129.756927 0.001550 0.000119 0.519308 -4.026342 -15.204302 129.756927
8 129.756927 0.001550 0.000119 0.527556 -4.025254 -15.299457 129.756927
[spine03]
7 78.614098 0.081520 -4.899008 1.990685 3.785024 17.901806 78.766640
8 78.614098 0.081501 -4.899009 1.992507 3.784066 17.956959 78.766640
[pelvis]
7 169.435242 0.051022 0.000000 -0.069882 -0.177913 16.978083 169.435257
8 169.435242 0.051022 0.000000 -0.070060 -0.177843 17.093103 169.435257
[null_rope03_connect]
7 -1.257226 -2.466202 137.391083 -16.971182 -83.641457 69.082390 137.418976
8 -1.257226 -2.466202 137.391083 -17.675192 -82.385345 69.200378 137.418976
[null_rope04_connect]
7 -1.259640 -2.480268 -137.844437 -16.971182 -83.641457 69.082390 137.872513
8 -1.259640 -2.480268 -137.844437 -17.675192 -82.385345 69.200378 137.872513
[Rope3_Seg01]
7 0.000010 0.000029 -0.000114 -153.882965 58.382095 -96.186249 0.000118
8 0.000010 0.000027 -0.000108 -148.581558 60.360836 -89.247437 0.000112
[Rope3_Seg02]
7 139.999924 -0.000119 0.000060 -1.678610 -5.499724 -0.274248 139.999924
8 139.999924 -0.000119 0.000060 -1.461514 -4.662071 0.922500 139.999924
[Rope3_Seg03]
7 139.999924 -0.000119 0.000119 -1.430532 -5.857939 -0.464970 139.999924
8 139.999924 -0.000119 0.000119 -1.377508 -5.005039 0.858951 139.999924
[Rope3_Seg04]
7 139.999924 0.000119 0.000000 -1.105505 -8.775567 -2.771022 139.999924
8 139.999924 0.000119 0.000000 -1.380936 -6.989400 -0.241042 139.999924
[Rope3_Seg05]
7 139.999924 -0.000238 0.000060 -0.272443 -7.622054 -2.210823 139.999924
8 139.999924 -0.000238 0.000060 -0.750450 -7.696031 -0.904561 139.999924
[Rope3_Seg06]
7 139.999893 -0.000119 -0.000060 0.331162 1.768070 5.623068 139.999893
8 139.999893 -0.000119 -0.000060 0.058008 -0.391179 3.785625 139.999893
[Rope3_Seg07]
7 139.999771 0.000060 -0.000119 1.564964 8.495650 11.743713 139.999771
8 139.999771 0.000060 -0.000119 1.168085 6.601246 9.005480 139.999771
[Rope3_Seg08]
7 139.999985 -0.000060 0.000000 0.461619 3.918811 6.771285 139.999985
8 139.999985 -0.000060 0.000000 0.546874 3.865095 6.456623 139.999985
[Rope3_Seg09]
7 90.185997 -0.000179 -0.000060 89.793228 -1.359877 -0.847183 90.185997
8 90.185997 -0.000179 -0.000060 89.793228 -1.359877 -0.847183 90.185997
[R_rear_hand01]
7 103.366196 -6.073594 -10.757982 -169.896027 22.621880 -54.548431 104.101845
8 103.366196 -6.073594 -10.757982 -168.239929 21.836601 -50.169044 104.101845
[R_rear_hand02]
7 100.509819 12.039542 -7.992327 -24.381289 31.099262 51.752331 101.543350
8 100.509819 12.039542 -7.992327 -26.552095 29.320543 47.442066 101.543350
[R_rear_hand03]
7 101.539970 5.215704 5.435467 80.187729 -54.464619 11.876325 101.819031
8 101.539970 5.215704 5.435467 81.061974 -50.389538 10.772509 101.819031
[Rope4_Seg01]
7 -0.000017 -0.000029 -0.000267 72.437912 44.278603 -74.859192 0.000269
8 -0.000016 -0.000027 -0.000286 70.891609 44.801117 -77.356758 0.000288
[Rope4_Seg02]
7 139.999985 0.000060 0.000119 7.619576 -4.350575 -19.524752 139.999985
8 139.999985 0.000060 0.000119 7.891140 -1.717607 -20.809683 139.999985
[Rope4_Seg03]
7 139.999924 0.000000 -0.000238 2.479454 -5.040148 -11.813675 139.999924
8 139.999924 0.000000 -0.000238 2.409178 -3.531619 -11.131277 139.999924
[Rope4_Seg04]
7 139.999985 0.000000 0.000119 0.907258 -6.347710 -9.674582 139.999985
8 139.999985 0.000000 0.000119 0.905942 -4.378037 -8.067551 139.999985
[Rope4_Seg05]
7 139.999802 -0.000060 -0.000119 0.010955 0.036466 -1.872836 139.999802
8 139.999802 -0.000060 -0.000119 0.124657 0.443436 -1.446993 139.999802
[Rope4_Seg06]
7 139.999924 0.000000 0.000060 0.219596 4.791683 2.604881 139.999924
8 139.999924 0.000000 0.000060 0.168460 3.966475 2.100892 139.999924
[Rope4_Seg07]
7 139.999802 0.000000 0.000000 0.734754 14.048906 10.226275 139.999802
8 139.999802 0.000000 0.000000 0.317490 11.533035 8.491874 139.999802
[Rope4_Seg08]
7 139.999924 0.000000 0.000119 -1.989772 13.051636 9.204339 139.999924
8 139.999924 0.000000 0.000119 -2.144781 12.629522 9.185922 139.999924
[Rope4_Seg09]
7 90.185791 0.000060 0.000060 -135.617828 2.228885 0.850567 90.185791
8 90.185791 0.000060 0.000060 -135.617828 2.228885 0.850567 90.185791
[L_rear_hand01]
7 101.696655 -8.392275 -7.654577 -31.684452 -23.583008 144.025742 102.329041
8 101.696655 -8.392275 -7.654577 -31.429779 -23.932976 143.406311 102.329041
[L_rear_hand02]
7 102.726799 -1.568258 5.773216 82.701553 38.753956 171.553619 102.900848
8 102.726799 -1.568258 5.773216 82.628304 39.414528 171.441589 102.900848
[L_rear_hand03]
7 104.552910 9.721220 -10.420293 -163.975403 -19.004421 -142.009338 105.519653
8 104.552910 9.721220 -10.420293 -164.198181 -19.188400 -141.332703 105.519653
